<svg width="37" height="28" viewBox="0 0 37 28" fill="none" xmlns="http://www.w3.org/2000/svg">
<path fill-rule="evenodd" clip-rule="evenodd" d="M12.1474 8.64702C13.5832 7.48901 15.1707 6.51858 16.91 5.73573C16.9571 5.71454 17.0043 5.69348 17.0516 5.67256C17.6363 5.41401 17.8605 4.69327 17.4946 4.17352L14.8494 0.417171C14.5576 0.0027186 13.9934 -0.124044 13.5537 0.132885C10.6775 1.8134 8.25716 3.58209 6.29267 5.43896C4.1765 7.46143 2.60113 9.55365 1.56656 11.7156C-0.451366 15.9325 -0.909307 21.7354 2.55411 25.3499C4.24704 27.1166 6.41023 28 9.04369 28C17.0225 28 20.4169 16.9336 12.6059 13.7381C11.73 13.3583 10.7939 13.1224 9.79745 13.0305C9.26922 12.9818 8.72405 12.9736 8.16195 13.0058C8.44375 12.5439 8.76881 12.0832 9.13714 11.6236C9.93668 10.6259 10.9401 9.63376 12.1474 8.64702ZM29.1251 13.0305C28.5969 12.9818 28.0517 12.9736 27.4896 13.0058C27.7714 12.5439 28.0965 12.0832 28.4648 11.6236C29.2644 10.6259 30.2678 9.63376 31.4751 8.64702C32.9108 7.48901 34.4984 6.51858 36.2377 5.73573C36.2848 5.71454 36.332 5.69348 36.3793 5.67257C36.964 5.41401 37.1882 4.69327 36.8222 4.17352L34.1771 0.41717C33.8853 0.00271827 33.3211 -0.124044 32.8814 0.132885C30.0052 1.8134 27.5848 3.58209 25.6203 5.43896C23.5042 7.46143 21.9288 9.55365 20.8942 11.7156C18.8763 15.9325 18.4184 21.7354 21.8818 25.3499C23.5747 27.1166 25.7379 28 28.3714 28C36.3502 28 39.7446 16.9336 31.9336 13.7381C31.0577 13.3583 30.1215 13.1224 29.1251 13.0305ZM31.405 15.0011L31.3916 14.9956L31.3783 14.9899C29.9142 14.355 28.3831 14.3238 26.8214 14.4133C26.0284 14.4588 25.5084 13.6068 25.9187 12.9343C27.1742 10.8763 28.7228 9.123 30.5942 7.59348L30.6011 7.58783C32.0686 6.40421 33.6813 5.4075 35.4354 4.59637L33.257 1.50281C30.5996 3.08151 28.3781 4.7239 26.5786 6.42425C24.5584 8.35552 23.0933 10.3163 22.144 12.3002C20.3749 15.997 19.823 21.2138 22.8855 24.4098C24.2976 25.8835 26.0879 26.6331 28.3714 26.6331C35.0426 26.6331 37.6282 17.5471 31.405 15.0011ZM12.0773 15.0011L12.0639 14.9956L12.0506 14.9899C10.5865 14.355 9.05542 14.3238 7.49377 14.4133C6.70068 14.4588 6.18067 13.6068 6.59099 12.9343C7.84653 10.8763 9.39511 9.123 11.2665 7.59348L11.2734 7.58783C12.7409 6.40421 14.3537 5.4075 16.1077 4.59637L13.9293 1.50281C11.2718 3.08155 9.05028 4.72398 7.25085 6.42437C5.23069 8.35559 3.76565 10.3163 2.81631 12.3002C1.04726 15.997 0.495365 21.2138 3.55778 24.4098C4.96993 25.8835 6.76027 26.6331 9.04369 26.6331C15.7149 26.6331 18.3005 17.5471 12.0773 15.0011Z" fill="#F68B9E"/>
</svg>
