<svg width="55" height="54" viewBox="0 0 55 54" fill="none" xmlns="http://www.w3.org/2000/svg">
<path fill-rule="evenodd" clip-rule="evenodd" d="M45.4534 36.6446C42.8545 40.1873 39.1036 42.715 34.8443 43.7939C32.5479 44.4256 30.1373 44.5232 27.7973 44.0791C25.4574 43.635 23.2502 42.6611 21.3448 41.232C13.5057 34.6629 15.3341 26.5282 19.1551 22.6196C22.9762 18.711 29.1511 19.0175 31.7678 24.4479C23.4032 6.27348 -3.46439 29.112 15.7392 48.7098C21.6186 54.0307 29.1949 56.2861 37.0997 50.9542C43.2177 46.9463 48.5776 41.8866 52.9312 36.0096C57.3106 30.1631 54.3435 24.2947 47.7416 15.6125C49.331 18.9891 49.9593 22.7382 49.5576 26.4485C49.1559 30.1587 47.7396 33.6865 45.4643 36.6446" fill="#EBEBEB"/>
<path fill-rule="evenodd" clip-rule="evenodd" d="M31.1868 0C20.8843 0.656908 4.26447 12.9082 1.31934 21.0977C-0.169655 25.2143 3.57473 34.0497 6.9797 37.6627C-0.301031 16.0723 24.5958 3.5692 34.3509 13.7513C47.292 27.2069 27.9132 39.5568 21.4645 29.0791C27.1358 46.7609 58.1091 33.8636 44.0184 9.73321C41.7301 5.96693 35.8399 -0.273713 31.1539 0.0328441" fill="#D9D9D9"/>
<path fill-rule="evenodd" clip-rule="evenodd" d="M44.0525 9.71118C46.3263 13.3811 47.8173 17.4812 48.4319 21.7545C49.7895 32.0899 39.6731 43.6514 28.845 41.188H28.6918C18.0608 38.6699 18.0827 27.8418 21.0278 28.5644C21.152 28.5937 21.2665 28.6544 21.3604 28.7407C21.4544 28.827 21.5246 28.9359 21.5643 29.0571C27.2356 46.7499 58.2088 33.8526 44.1182 9.72214" fill="#EBEBEB"/>
<path fill-rule="evenodd" clip-rule="evenodd" d="M15.7388 48.7097C14.5082 47.5591 13.3491 46.3343 12.2681 45.042C9.94448 42.1124 8.27569 38.7188 7.37419 35.0898C5.1845 25.5537 11.9944 13.7404 21.7057 13.4229C34.1541 13.4229 35.0738 25.6961 32.5557 25.3348C32.43 25.3157 32.3115 25.2643 32.2117 25.1856C32.1119 25.1069 32.0342 25.0036 31.9863 24.8859C23.8516 5.90125 -3.61808 28.9587 15.7607 48.7097" fill="#D9D9D9"/>
</svg>
