<svg width="16" height="16" viewBox="0 0 16 16" fill="none" xmlns="http://www.w3.org/2000/svg">
<path d="M3.49187 0.60913C5.45329 -0.587262 8.01318 0.032927 9.20956 1.99434C9.30657 2.15337 9.51413 2.20366 9.67317 2.10666C11.6346 0.910274 14.1945 1.53044 15.3909 3.49187C16.5873 5.4533 15.9671 8.01321 14.0057 9.2096C13.8466 9.3066 13.7963 9.51414 13.8933 9.67314C15.0897 11.6346 14.4696 14.1945 12.5081 15.3909C10.5467 16.5873 7.98678 15.9671 6.79038 14.0056C6.6934 13.8466 6.48587 13.7964 6.32687 13.8934C4.36544 15.0897 1.80552 14.4696 0.609126 12.5081C-0.587265 10.5467 0.0329361 7.98681 1.99436 6.79041C2.15337 6.69343 2.20363 6.48588 2.10663 6.32685C0.910244 4.36543 1.53044 1.80552 3.49187 0.60913Z" fill="#E7A627"/>
</svg>
